<svg width="48" height="48" viewBox="0 0 48 48" fill="none" xmlns="http://www.w3.org/2000/svg">
<rect x="1.5" y="1.5" width="45" height="45" rx="4.5" stroke="#5865F2" stroke-width="3"/>
<g clip-path="url(#clip0_316_44)">
<path d="M33.7038 15.0872C31.8884 14.2535 29.9725 13.6588 28.0041 13.318C27.9862 13.315 27.9679 13.3176 27.9516 13.3254C27.9353 13.3332 27.9218 13.3459 27.9131 13.3617C27.6663 13.7992 27.3933 14.3715 27.2026 14.8195C25.0808 14.4978 22.9228 14.4978 20.8011 14.8195C20.5892 14.32 20.3484 13.8333 20.0801 13.3617C20.0713 13.3459 20.0578 13.3332 20.0415 13.3254C20.0252 13.3176 20.0069 13.315 19.9891 13.318C18.0203 13.6575 16.1041 14.2525 14.2893 15.0872C14.2737 15.093 14.2607 15.1042 14.2526 15.1187C10.6231 20.542 9.6273 25.8322 10.1156 31.056C10.1191 31.0817 10.1313 31.1032 10.1523 31.1207C12.2662 32.6856 14.6301 33.8809 17.1436 34.6557C17.1613 34.6613 17.1804 34.6611 17.198 34.6552C17.2156 34.6492 17.2309 34.6377 17.2416 34.6225C17.7817 33.8875 18.2589 33.1122 18.6731 32.2967C18.6817 32.2799 18.6846 32.2608 18.6815 32.2422C18.6783 32.2236 18.6692 32.2065 18.6556 32.1935L18.6241 32.1742C17.8704 31.8837 17.1403 31.5356 16.4401 31.133C16.4205 31.1219 16.406 31.1037 16.3995 31.0822C16.3929 31.0607 16.3949 31.0376 16.4051 31.0175L16.4313 30.9842C16.5795 30.8734 16.7241 30.7597 16.8653 30.643C16.8777 30.633 16.8925 30.6267 16.9082 30.6245C16.924 30.6223 16.94 30.6245 16.9546 30.6307C21.5378 32.7237 26.4991 32.7237 31.0263 30.6307C31.0413 30.6238 31.058 30.6213 31.0745 30.6234C31.0909 30.6256 31.1063 30.6324 31.1191 30.643C31.2602 30.7597 31.4049 30.8734 31.5531 30.9842C31.5654 30.9927 31.5753 31.0041 31.582 31.0175C31.5886 31.0308 31.5917 31.0457 31.591 31.0606C31.5903 31.0755 31.5858 31.09 31.578 31.1026C31.5701 31.1153 31.5591 31.1258 31.5461 31.133C30.8488 31.5419 30.1175 31.8897 29.3603 32.1725C29.3482 32.1769 29.3373 32.1838 29.3282 32.1929C29.3191 32.202 29.3122 32.2129 29.3078 32.225C29.3035 32.2366 29.3018 32.2491 29.3027 32.2614C29.3036 32.2738 29.3071 32.2858 29.3131 32.2967C29.7331 33.1105 30.2143 33.8875 30.7428 34.6225C30.7535 34.6377 30.7687 34.6492 30.7864 34.6552C30.804 34.6611 30.8231 34.6613 30.8408 34.6557C33.3592 33.8852 35.7272 32.6896 37.8426 31.1207C37.8531 31.1133 37.8618 31.1037 37.8682 31.0925C37.8745 31.0813 37.8783 31.0688 37.8793 31.056C38.4638 25.0167 36.9011 19.7702 33.7388 15.1205C33.7361 15.1126 33.7314 15.1054 33.7253 15.0996C33.7193 15.0938 33.7119 15.0896 33.7038 15.0872ZM19.3573 27.8745C17.9766 27.8745 16.8408 26.6075 16.8408 25.0535C16.8408 23.4995 17.9556 22.2307 19.3573 22.2307C20.7696 22.2307 21.8948 23.5082 21.8738 25.0535C21.8738 26.6075 20.7591 27.8745 19.3573 27.8745ZM28.6603 27.8745C27.2813 27.8745 26.1438 26.6075 26.1438 25.0535C26.1438 23.4995 27.2586 22.2307 28.6603 22.2307C30.0726 22.2307 31.1996 23.5082 31.1768 25.0535C31.1768 26.6075 30.0726 27.8745 28.6603 27.8745Z" fill="#5865F2"/>
</g>
<defs>
<clipPath id="clip0_316_44">
<rect width="28" height="28" fill="white" transform="translate(10 10)"/>
</clipPath>
</defs>
</svg>
