<svg width="48" height="48" viewBox="0 0 48 48" fill="none" xmlns="http://www.w3.org/2000/svg">
<rect x="1.5" y="1.5" width="45" height="45" rx="4.5" stroke="#FF6070" stroke-width="3"/>
<g clip-path="url(#clip0_323_54)">
<path d="M12 23.64C12 16.9515 17.2395 12 24 12C30.7605 12 36 16.9515 36 23.64C36 30.3285 30.7605 35.28 24 35.28C22.785 35.28 21.621 35.1195 20.526 34.8195C20.3137 34.7605 20.0875 34.7764 19.8855 34.8645L17.5035 35.9175C17.3596 35.981 17.2024 36.0081 17.0456 35.9966C16.8888 35.985 16.7372 35.9351 16.6042 35.8513C16.4711 35.7675 16.3608 35.6522 16.2827 35.5157C16.2046 35.3792 16.1613 35.2257 16.1565 35.0685L16.0905 32.934C16.0859 32.8041 16.0549 32.6765 15.9994 32.5589C15.944 32.4413 15.8653 32.3362 15.768 32.25C13.434 30.162 12 27.138 12 23.64ZM20.319 21.4515L16.794 27.0435C16.4565 27.5805 17.115 28.185 17.6205 27.8025L21.408 24.9285C21.5326 24.8339 21.6846 24.7824 21.841 24.7819C21.9974 24.7813 22.1498 24.8317 22.275 24.9255L25.0785 27.0285C25.2774 27.1777 25.5051 27.284 25.7471 27.3408C25.9892 27.3976 26.2404 27.4037 26.4849 27.3586C26.7294 27.3135 26.9619 27.2182 27.1678 27.0788C27.3736 26.9394 27.5484 26.7588 27.681 26.5485L31.206 20.9565C31.545 20.4195 30.885 19.815 30.3795 20.1975L26.592 23.0715C26.4674 23.1661 26.3154 23.2176 26.159 23.2181C26.0026 23.2187 25.8502 23.1683 25.725 23.0745L22.9215 20.97C22.7226 20.8208 22.4949 20.7145 22.2529 20.6577C22.0108 20.6009 21.7596 20.5948 21.5151 20.6399C21.2706 20.685 21.0381 20.7803 20.8322 20.9197C20.6264 21.0591 20.4516 21.2412 20.319 21.4515Z" fill="#FF6070"/>
</g>
<defs>
<clipPath id="clip0_323_54">
<rect width="24" height="24" fill="white" transform="translate(12 12)"/>
</clipPath>
</defs>
</svg>
