<svg width="48" height="48" viewBox="0 0 48 48" fill="none" xmlns="http://www.w3.org/2000/svg">
<rect x="1.5" y="1.5" width="45" height="45" rx="4.5" stroke="#FF5700" stroke-width="3"/>
<g clip-path="url(#clip0_328_70)">
<path d="M21.2505 24C21.087 24 20.9251 24.0322 20.7741 24.0948C20.623 24.1573 20.4858 24.249 20.3701 24.3647C20.2545 24.4803 20.1628 24.6175 20.1003 24.7686C20.0377 24.9196 20.0055 25.0815 20.0055 25.245C20.0055 25.9335 20.5635 26.505 21.2505 26.4915C21.5734 26.4803 21.8793 26.3441 22.1038 26.1117C22.3283 25.8793 22.4538 25.5689 22.4538 25.2457C22.4538 24.9226 22.3283 24.6122 22.1038 24.3798C21.8793 24.1474 21.5734 24.0112 21.2505 24ZM24.015 29.4705C24.4875 29.4705 26.1195 29.4135 26.979 28.554C27.0353 28.4908 27.0664 28.4091 27.0664 28.3245C27.0664 28.2399 27.0353 28.1582 26.979 28.095C26.9492 28.0642 26.9135 28.0398 26.8741 28.0231C26.8347 28.0064 26.7923 27.9978 26.7495 27.9978C26.7067 27.9978 26.6643 28.0064 26.6249 28.0231C26.5854 28.0398 26.5498 28.0642 26.52 28.095C25.9905 28.6395 24.831 28.8255 24.015 28.8255C23.1975 28.8255 22.053 28.6395 21.5085 28.095C21.4787 28.0642 21.443 28.0398 21.4036 28.0231C21.3642 28.0064 21.3218 27.9978 21.279 27.9978C21.2362 27.9978 21.1938 28.0064 21.1544 28.0231C21.1149 28.0398 21.0793 28.0642 21.0495 28.095C21.0187 28.1248 20.9943 28.1605 20.9776 28.1999C20.9609 28.2393 20.9523 28.2817 20.9523 28.3245C20.9523 28.3673 20.9609 28.4097 20.9776 28.4491C20.9943 28.4885 21.0187 28.5242 21.0495 28.554C21.8955 29.3985 23.5275 29.469 24.015 29.469V29.4705ZM25.503 25.26C25.503 25.947 26.0625 26.505 26.7495 26.505C27.4365 26.505 27.9945 25.9335 27.9945 25.26C27.9788 24.9404 27.8408 24.639 27.609 24.4184C27.3773 24.1977 27.0695 24.0746 26.7495 24.0746C26.4295 24.0746 26.1217 24.1977 25.89 24.4184C25.6582 24.639 25.5202 24.9404 25.5045 25.26H25.503Z" fill="#FF5700"/>
<path d="M36 24C36 27.1826 34.7357 30.2348 32.4853 32.4853C30.2348 34.7357 27.1826 36 24 36C20.8174 36 17.7652 34.7357 15.5147 32.4853C13.2643 30.2348 12 27.1826 12 24C12 20.8174 13.2643 17.7652 15.5147 15.5147C17.7652 13.2643 20.8174 12 24 12C27.1826 12 30.2348 13.2643 32.4853 15.5147C34.7357 17.7652 36 20.8174 36 24ZM30.258 22.2525C29.7855 22.2525 29.355 22.4385 29.04 22.74C27.8385 21.8805 26.19 21.3225 24.3585 21.2505L25.1595 17.499L27.7665 18.057C27.778 18.3004 27.8606 18.5351 28.0042 18.732C28.1477 18.9289 28.3459 19.0794 28.5742 19.1647C28.8025 19.25 29.0507 19.2665 29.2883 19.212C29.5258 19.1576 29.7421 19.0346 29.9104 18.8584C30.0788 18.6822 30.1917 18.4604 30.2351 18.2207C30.2786 17.9809 30.2508 17.7336 30.1551 17.5095C30.0594 17.2854 29.9 17.0943 29.6967 16.9599C29.4934 16.8255 29.2552 16.7538 29.0115 16.7535C28.7784 16.7543 28.5502 16.8205 28.3529 16.9446C28.1557 17.0688 27.9972 17.2458 27.8955 17.4555L24.9885 16.8405C24.9494 16.8318 24.9089 16.8311 24.8695 16.8383C24.8301 16.8455 24.7925 16.8605 24.759 16.8825C24.7249 16.9054 24.6958 16.935 24.6736 16.9696C24.6514 17.0042 24.6366 17.0429 24.63 17.0835L23.742 21.2655C21.882 21.3225 20.205 21.8805 18.987 22.7535C18.672 22.4535 18.243 22.2675 17.772 22.2675C17.3726 22.2669 16.985 22.4034 16.6741 22.6542C16.3632 22.905 16.1478 23.2549 16.0639 23.6454C15.9799 24.036 16.0326 24.4435 16.213 24.7998C16.3934 25.1562 16.6906 25.4399 17.055 25.6035C17.025 25.7735 17.0105 25.95 17.0115 26.133C17.0115 28.8255 20.148 31.017 24.015 31.017C27.882 31.017 31.017 28.8405 31.017 26.133C31.017 25.962 31.002 25.776 30.9735 25.6035C31.575 25.332 32.0055 24.7155 32.0055 24C32.0055 23.025 31.218 22.2525 30.258 22.2525Z" fill="#FF5700"/>
</g>
<defs>
<clipPath id="clip0_328_70">
<rect width="24" height="24" fill="white" transform="translate(12 12)"/>
</clipPath>
</defs>
</svg>
