<svg width="48" height="48" viewBox="0 0 48 48" fill="none" xmlns="http://www.w3.org/2000/svg">
<rect x="1.5" y="1.5" width="45" height="45" rx="4.5" stroke="#1DA1F2" stroke-width="3"/>
<g clip-path="url(#clip0_305_36)">
<path d="M18.7955 36.25C29.362 36.25 35.1422 27.4947 35.1422 19.9155C35.1446 19.6693 35.1411 19.4232 35.1318 19.177C36.2567 18.3619 37.2279 17.3534 38 16.1985C36.9484 16.661 35.8346 16.9664 34.6943 17.105C35.8958 16.387 36.7957 15.257 37.2265 13.9252C36.0982 14.595 34.8626 15.0645 33.5742 15.313C32.7083 14.3908 31.5625 13.7798 30.3141 13.5748C29.0658 13.3698 27.7848 13.5821 26.6693 14.1789C25.5539 14.7757 24.6664 15.7236 24.1443 16.8758C23.6222 18.0281 23.4946 19.3204 23.7812 20.5525C21.4969 20.4385 19.2621 19.8453 17.222 18.8115C15.1818 17.7777 13.3818 16.3264 11.939 14.5517C11.2068 15.8172 10.9834 17.3139 11.3143 18.7381C11.6451 20.1622 12.5054 21.4071 13.7205 22.2202C12.8095 22.1908 11.9183 21.9461 11.12 21.5062V21.585C11.1222 22.9104 11.5817 24.1945 12.4208 25.2204C13.2599 26.2464 14.4274 26.9514 15.726 27.2165C15.233 27.3524 14.7237 27.4201 14.2123 27.4177C13.8516 27.4215 13.4915 27.3881 13.1377 27.318C13.5042 28.4595 14.2189 29.4576 15.1815 30.1723C16.1441 30.887 17.3063 31.2823 18.505 31.3027C16.4682 32.9004 13.9537 33.7676 11.365 33.765C10.9088 33.7684 10.4528 33.7421 10 33.6862C12.6275 35.3618 15.6792 36.2513 18.7955 36.25Z" fill="#1DA1F2"/>
</g>
<defs>
<clipPath id="clip0_305_36">
<rect width="28" height="28" fill="white" transform="translate(10 10)"/>
</clipPath>
</defs>
</svg>
