<svg width="48" height="48" viewBox="0 0 48 48" fill="none" xmlns="http://www.w3.org/2000/svg">
<rect x="1.5" y="1.5" width="45" height="45" rx="4.5" stroke="#1DB954" stroke-width="3"/>
<g clip-path="url(#clip0_332_82)">
<path d="M24 12C20.8174 12 17.7652 13.2643 15.5147 15.5147C13.2643 17.7652 12 20.8174 12 24C12 27.1826 13.2643 30.2348 15.5147 32.4853C17.7652 34.7357 20.8174 36 24 36C27.1826 36 30.2348 34.7357 32.4853 32.4853C34.7357 30.2348 36 27.1826 36 24C36 20.8174 34.7357 17.7652 32.4853 15.5147C30.2348 13.2643 27.1826 12 24 12ZM29.5035 29.307C29.3996 29.4759 29.2329 29.5968 29.0401 29.6432C28.8473 29.6896 28.6439 29.6577 28.4745 29.5545C25.656 27.834 22.11 27.444 17.9325 28.3995C17.739 28.4437 17.5358 28.4091 17.3677 28.3035C17.1996 28.1979 17.0804 28.0298 17.0363 27.8362C16.9921 27.6427 17.0266 27.4396 17.1323 27.2715C17.2379 27.1034 17.406 26.9842 17.5995 26.94C22.1715 25.896 26.0925 26.3445 29.2545 28.278C29.4237 28.3817 29.5449 28.5482 29.5916 28.7411C29.6382 28.9339 29.6066 29.1374 29.5035 29.307ZM30.972 26.04C30.842 26.2514 30.6335 26.4025 30.3922 26.4602C30.1508 26.5178 29.8965 26.4773 29.685 26.3475C26.46 24.366 21.543 23.7915 17.727 24.9495C17.4947 25.0047 17.2502 24.9692 17.0432 24.8503C16.8362 24.7313 16.6823 24.5379 16.6131 24.3094C16.5438 24.0809 16.5643 23.8347 16.6704 23.6208C16.7765 23.4069 16.9602 23.2416 17.184 23.1585C21.5415 21.837 26.9595 22.4775 30.663 24.753C30.8746 24.8827 31.0261 25.0912 31.084 25.3325C31.142 25.5739 31.1017 25.8284 30.972 26.04ZM31.098 22.638C27.231 20.34 20.85 20.1285 17.157 21.249C16.8722 21.3353 16.5647 21.305 16.3022 21.1646C16.0398 21.0242 15.8438 20.7853 15.7575 20.5005C15.6712 20.2157 15.7015 19.9082 15.8419 19.6457C15.9823 19.3833 16.2212 19.1873 16.506 19.101C20.7435 17.8155 27.7905 18.063 32.244 20.706C32.5002 20.858 32.6855 21.1055 32.7592 21.3941C32.8329 21.6827 32.789 21.9888 32.637 22.245C32.485 22.5012 32.2375 22.6865 31.9489 22.7602C31.6603 22.8339 31.3542 22.79 31.098 22.638Z" fill="#1DB954"/>
</g>
<defs>
<clipPath id="clip0_332_82">
<rect width="24" height="24" fill="white" transform="translate(12 12)"/>
</clipPath>
</defs>
</svg>
