<svg width="48" height="48" viewBox="0 0 48 48" fill="none" xmlns="http://www.w3.org/2000/svg">
<rect x="1.5" y="1.5" width="45" height="45" rx="4.5" stroke="#C3352E" stroke-width="3"/>
<g clip-path="url(#clip0_329_76)">
<path d="M21.8296 27.318V20.6827L27.5768 24.0007L21.8296 27.318ZM24.0001 18.1627C20.7766 18.1627 18.1628 20.7757 18.1628 24C18.1628 27.2242 20.7758 29.8372 24.0001 29.8372C27.2236 29.8372 29.8373 27.2242 29.8373 24C29.8321 20.778 27.2213 18.168 24.0001 18.1627ZM24.0001 30.6577C20.3228 30.6577 17.3423 27.6765 17.3423 24C17.3423 20.3235 20.3236 17.3422 24.0001 17.3422C27.6773 17.3422 30.6578 20.3235 30.6578 24C30.6578 27.6765 27.6773 30.6577 24.0001 30.6577ZM24.0001 12.753C17.7886 12.753 12.7531 17.7885 12.7531 24C12.7531 30.2115 17.7886 35.247 24.0001 35.247C30.2116 35.247 35.2471 30.2115 35.2471 24C35.2448 17.7892 30.2101 12.7552 24.0001 12.753Z" fill="#C3352E"/>
</g>
<defs>
<clipPath id="clip0_329_76">
<rect width="24" height="24" fill="white" transform="translate(12 12)"/>
</clipPath>
</defs>
</svg>
